<svg id="visual" viewBox="0 0 600 900" width="600" height="900" xmlns="http://www.w3.org/2000/svg" xmlns:xlink="http://www.w3.org/1999/xlink" version="1.1"><rect x="0" y="0" width="600" height="900" fill="#1f2937"></rect><path d="M264 900L317 900L317 788L304 788L304 675L236 675L236 563L314 563L314 450L266 450L266 338L235 338L235 225L313 225L313 113L239 113L239 0L600 0L600 113L600 113L600 225L600 225L600 338L600 338L600 450L600 450L600 563L600 563L600 675L600 675L600 788L600 788L600 900L600 900Z" fill="#6b7280"></path><path d="M403 900L357 900L357 788L351 788L351 675L389 675L389 563L394 563L394 450L371 450L371 338L376 338L376 225L398 225L398 113L384 113L384 0L600 0L600 113L600 113L600 225L600 225L600 338L600 338L600 450L600 450L600 563L600 563L600 675L600 675L600 788L600 788L600 900L600 900Z" fill="#383c45"></path><path d="M459 900L477 900L477 788L503 788L503 675L458 675L458 563L448 563L448 450L459 450L459 338L470 338L470 225L482 225L482 113L464 113L464 0L600 0L600 113L600 113L600 225L600 225L600 338L600 338L600 450L600 450L600 563L600 563L600 675L600 675L600 788L600 788L600 900L600 900Z" fill="#070910"></path></svg>