<svg id="visual" viewBox="0 0 900 600" width="900" height="600" xmlns="http://www.w3.org/2000/svg" xmlns:xlink="http://www.w3.org/1999/xlink" version="1.1"><path d="M0 37L60 67L120 25L180 67L240 61L300 61L360 31L420 25L480 13L540 31L600 37L660 13L720 49L780 55L840 13L900 61L900 0L840 0L780 0L720 0L660 0L600 0L540 0L480 0L420 0L360 0L300 0L240 0L180 0L120 0L60 0L0 0Z" fill="#002b36"></path><path d="M0 79L60 91L120 151L180 157L240 91L300 121L360 79L420 55L480 97L540 139L600 115L660 61L720 67L780 121L840 31L900 157L900 59L840 11L780 53L720 47L660 11L600 35L540 29L480 11L420 23L360 29L300 59L240 59L180 65L120 23L60 65L0 35Z" fill="#23424b"></path><path d="M0 325L60 211L120 349L180 283L240 157L300 259L360 313L420 139L480 349L540 223L600 325L660 289L720 283L780 163L840 157L900 223L900 155L840 29L780 119L720 65L660 59L600 113L540 137L480 95L420 53L360 77L300 119L240 89L180 155L120 149L60 89L0 77Z" fill="#405a62"></path><path d="M0 397L60 241L120 367L180 349L240 223L300 313L360 379L420 163L480 379L540 235L600 391L660 307L720 301L780 175L840 199L900 253L900 221L840 155L780 161L720 281L660 287L600 323L540 221L480 347L420 137L360 311L300 257L240 155L180 281L120 347L60 209L0 323Z" fill="#586e75"></path><path d="M0 481L60 373L120 403L180 403L240 541L300 481L360 439L420 337L480 457L540 427L600 463L660 343L720 379L780 349L840 295L900 463L900 251L840 197L780 173L720 299L660 305L600 389L540 233L480 377L420 161L360 377L300 311L240 221L180 347L120 365L60 239L0 395Z" fill="#586e75"></path><path d="M0 499L60 427L120 463L180 475L240 553L300 499L360 511L420 403L480 481L540 469L600 505L660 409L720 391L780 421L840 361L900 541L900 461L840 293L780 347L720 377L660 341L600 461L540 425L480 455L420 335L360 437L300 479L240 539L180 401L120 401L60 371L0 479Z" fill="#405a62"></path><path d="M0 547L60 505L120 487L180 499L240 571L300 541L360 523L420 445L480 535L540 553L600 559L660 487L720 481L780 457L840 451L900 559L900 539L840 359L780 419L720 389L660 407L600 503L540 467L480 479L420 401L360 509L300 497L240 551L180 473L120 461L60 425L0 497Z" fill="#23424b"></path><path d="M0 601L60 601L120 601L180 601L240 601L300 601L360 601L420 601L480 601L540 601L600 601L660 601L720 601L780 601L840 601L900 601L900 557L840 449L780 455L720 479L660 485L600 557L540 551L480 533L420 443L360 521L300 539L240 569L180 497L120 485L60 503L0 545Z" fill="#002b36"></path></svg>